<svg id="Layer_1" data-name="Layer 1" xmlns="http://www.w3.org/2000/svg" viewBox="0 0 125.14 54.99"><defs><style>.cls-1{fill:#00afd2;}.cls-2{fill:#fff;}.cls-3{fill:#cf0e4d;}.cls-4{fill:#ffdc00;}.cls-5{fill:#78ca44;}.cls-6{fill:none;stroke:#6d6d6d;stroke-miterlimit:10;stroke-width:2.47px;}</style></defs><title>circle-li-yellow</title><circle class="cls-1" cx="5.9" cy="5.62" r="4.5"/><path class="cls-2" d="M-75.1-4.2A4.15,4.15,0,0,1-78.4-.3a3.78,3.78,0,0,1-4.7-3.3c0-4.7,7.8-5.5,8-.6,0,.7,1.2,1.8,1.2.6C-74-6.3-75.7-9-78.6-9.3a5.1,5.1,0,0,0-5.5,5.1,5.59,5.59,0,0,0,4.5,5.6,5,5,0,0,0,5.7-5C-73.9-4.4-75-5.4-75.1-4.2Z" transform="translate(84.1 9.32)"/><circle class="cls-3" cx="5.9" cy="20.12" r="4.5"/><path class="cls-2" d="M-75.1,10.3a4.15,4.15,0,0,1-3.3,3.9,3.78,3.78,0,0,1-4.7-3.3c0-4.7,7.8-5.5,8-.6,0,.7,1.2,1.8,1.2.6-.1-2.7-1.8-5.4-4.7-5.7a5.1,5.1,0,0,0-5.5,5.1,5.59,5.59,0,0,0,4.5,5.6,5,5,0,0,0,5.7-5C-73.9,10.1-75,9.1-75.1,10.3Z" transform="translate(84.1 9.32)"/><circle class="cls-4" cx="5.9" cy="34.82" r="4.5"/><path class="cls-2" d="M-75.1,25a4.15,4.15,0,0,1-3.3,3.9,3.78,3.78,0,0,1-4.7-3.3c0-4.6,7.8-5.5,8-.6,0,.7,1.2,1.8,1.2.6-.1-2.7-1.8-5.4-4.7-5.7A5.1,5.1,0,0,0-84.1,25a5.59,5.59,0,0,0,4.5,5.6,5,5,0,0,0,5.7-5C-73.9,24.8-75,23.8-75.1,25Z" transform="translate(84.1 9.32)"/><circle class="cls-5" cx="5.9" cy="49.82" r="4.5"/><path class="cls-2" d="M-75.1,40a4.15,4.15,0,0,1-3.3,3.9,3.78,3.78,0,0,1-4.7-3.3c0-4.7,7.8-5.5,8-.6,0,.7,1.2,1.8,1.2.6-.1-2.7-1.8-5.4-4.7-5.7A5.1,5.1,0,0,0-84.1,40a5.59,5.59,0,0,0,4.5,5.6,5,5,0,0,0,5.7-5C-73.9,39.8-75,38.8-75.1,40Z" transform="translate(84.1 9.32)"/><circle class="cls-6" cx="105.18" cy="29.4" r="18.72"/></svg>