<svg id="Layer_1" data-name="Layer 1" xmlns="http://www.w3.org/2000/svg" viewBox="0 0 70.24 70.24"><defs><style>.cls-1{fill:#d9272e;}.cls-2{fill:#fff;}.cls-3{fill:none;stroke:#d7282f;stroke-miterlimit:10;stroke-width:3.61px;}</style></defs><title>list-icon</title><circle class="cls-1" cx="35.12" cy="35.12" r="35.12"/><path class="cls-2" d="M46,31.43H46c-2.36-3.79-4.81-7.52-7.42-11.16.21.29,2.61-4.14,2.74-4.58,3.47-11.8-11.61-9.44-17.84-6.57A22.05,22.05,0,0,0,18.59,12c-5.42,4.54,3,10.13,7.29,11a.78.78,0,0,0,0,.1c0,4.79-.39,9.57-.64,14.36a5,5,0,0,0-1.12,1.32C18.29,49,29.43,51.2,37.68,50.09a90.88,90.88,0,0,0,6.67,11.77A.9.9,0,0,0,46,61.41a39.3,39.3,0,0,0-1-11.76c0-.41-.08-.83-.15-1.25a.68.68,0,0,0-.15-.32A15.56,15.56,0,0,0,51,43.25C54.89,37.82,52.17,33.07,46,31.43Z"/><path class="cls-3" d="M18.08,22.39c6.82,3.95,22.21.86,26.16-6"/><path class="cls-3" d="M21.21,37.22c6.82,3.95,22.21.86,26.16-6"/><path class="cls-3" d="M36.53,52.07a30.36,30.36,0,0,0,11-3.42"/></svg>