<svg id="Layer_1" data-name="Layer 1" xmlns="http://www.w3.org/2000/svg" viewBox="0 0 33.66 51.05"><defs><style>.cls-1{fill:#ffdc3c;}.cls-2{fill:#fff;}.cls-3{fill:none;}.cls-4{fill:#333;}.cls-5{isolation:isolate;}</style></defs><title>print-friendly-icon</title><path class="cls-1" d="M25.73,2.35c-4.14-2-9-3.18-13.31-1.66A23.16,23.16,0,0,0,6.29,4.4,16.93,16.93,0,0,0,1.12,9.72C-.08,12.11,0,14.9,0,17.57A15.59,15.59,0,0,0,1.1,24.05c1.16,2.39,3.45,4,5.8,5.26a23.36,23.36,0,0,0,11.74,2.91,15.21,15.21,0,0,0,10.83-4.94,16.13,16.13,0,0,0,2.45-4c2.49-5.59,2.41-12.47-1-17.58C28.86,2.58,25,.13,21.47,1.26" transform="translate(0.01 0)"/><path class="cls-2" d="M3.53,18.77a.63.63,0,0,0-.37.81l0,.07a.56.56,0,0,0,.9,0,.51.51,0,0,0-.42-.75" transform="translate(0.01 0)"/><path class="cls-2" d="M27.25,12.49a.59.59,0,0,0,1.05.32.61.61,0,0,0-.81-.78" transform="translate(0.01 0)"/><path class="cls-2" d="M29.25,10.17a1.45,1.45,0,0,0,.44.58.5.5,0,0,0,.66-.07c.14-.2-.07-.56-.3-.46" transform="translate(0.01 0)"/><path class="cls-2" d="M4.48,9.92a.75.75,0,0,1-.81-.19.47.47,0,0,1,.1-.66L3.88,9c.29-.06.53.41.28.56" transform="translate(0.01 0)"/><path class="cls-2" d="M30.25,23.07a1,1,0,0,1-1,.91H8.11a.92.92,0,0,1-1-.84s0,0,0-.07V15.29a1,1,0,0,1,1-.91H29.25a.92.92,0,0,1,1,.84s0,0,0,.07Z" transform="translate(0.01 0)"/><path class="cls-2" d="M10.6,24v2.26a.92.92,0,0,0,.93.91H26a1,1,0,0,0,1-.91V24H10.6Z" transform="translate(0.01 0)"/><path class="cls-2" d="M21.78,3.61H12.33a.91.91,0,0,0-.91.91v9.85H25.83V7.86a2.86,2.86,0,0,0-.77-2L23.67,4.38A2.58,2.58,0,0,0,21.78,3.61Z" transform="translate(0.01 0)"/><line class="cls-3" x1="14.79" y1="7.55" x2="22.9" y2="7.55"/><line class="cls-3" x1="14.79" y1="9.95" x2="22.9" y2="9.95"/><line class="cls-3" x1="14.79" y1="12.35" x2="22.9" y2="12.35"/><line class="cls-3" x1="7.24" y1="21.87" x2="30.3" y2="21.87"/><path class="cls-4" d="M6.68,25a1.45,1.45,0,0,1-1.41-1.32v-7.9a1.53,1.53,0,0,1,1.52-1.44H27.93a1.37,1.37,0,0,1,1,.33,1.43,1.43,0,0,1,.51,1v7.95A1.52,1.52,0,0,1,27.93,25H6.68Zm.11-9.6a.47.47,0,0,0-.48.43V23.6a.4.4,0,0,0,.43.39H27.93a.47.47,0,0,0,.47-.41V15.82a.39.39,0,0,0-.43-.39H6.79Z" transform="translate(0.01 0)"/><path class="cls-4" d="M10.23,28.21a1.46,1.46,0,0,1-1.51-1.43V24H26.19v2.79a1.53,1.53,0,0,1-1.52,1.44H10.23ZM9.77,25v1.74a.4.4,0,0,0,.4.39H24.66a.47.47,0,0,0,.48-.43V25Z" transform="translate(0.01 0)"/><path class="cls-4" d="M25,15.42H9.52V5A1.44,1.44,0,0,1,11,3.61h9.78a3.2,3.2,0,0,1,2.51,1.21l1,1.31A3.54,3.54,0,0,1,25,8.29Zm-14.41-1H23.93V8.29a2.48,2.48,0,0,0-.52-1.51l-1-1.31a2.11,2.11,0,0,0-1.65-.8H11a.39.39,0,0,0-.39.39Z" transform="translate(0.01 0)"/><rect class="cls-4" x="13.43" y="7.56" width="8.11" height="1.05"/><rect class="cls-4" x="13.43" y="9.96" width="8.11" height="1.05"/><rect class="cls-4" x="13.43" y="12.36" width="8.11" height="1.05"/><path class="cls-4" d="M26.34,18.27A1.29,1.29,0,1,1,27.64,17,1.3,1.3,0,0,1,26.34,18.27Zm0-1.54a.24.24,0,0,0-.24.25c0,.27.49.27.49,0A.24.24,0,0,0,26.34,16.73Z" transform="translate(0.01 0)"/><rect class="cls-4" x="5.88" y="21.87" width="23.06" height="1.05"/><g class="cls-5"><g class="cls-5"><path class="cls-2" d="M1.39,43V37.78H2.83a3.44,3.44,0,0,1,.87.09,1.53,1.53,0,0,1,.57.29,1.6,1.6,0,0,1,.38.49,1.45,1.45,0,0,1,.15.69,1.51,1.51,0,0,1-.22.8,1.33,1.33,0,0,1-.56.53,2.76,2.76,0,0,1-1.2.22H1.91V43Zm.52-4.71V40.4H3.3a1.17,1.17,0,0,0,.47-.15,1.12,1.12,0,0,0,.38-.39,1.08,1.08,0,0,0,0-1.05,1.06,1.06,0,0,0-.34-.36,1.3,1.3,0,0,0-.52-.17,5.55,5.55,0,0,0-.64,0Z" transform="translate(0.01 0)"/><path class="cls-2" d="M5.49,43V37.78H6.81a3.92,3.92,0,0,1,1,.1,1.59,1.59,0,0,1,.61.3,1.64,1.64,0,0,1,.39.47,1.62,1.62,0,0,1,.2.79,1.67,1.67,0,0,1-.17.74,1.42,1.42,0,0,1-.52.58,1.9,1.9,0,0,1-.85.28L8.93,43H8.28L6.52,40.62l.77,0a1.76,1.76,0,0,0,.47-.09,1.17,1.17,0,0,0,.36-.22,1.07,1.07,0,0,0,.27-.38,1.15,1.15,0,0,0,0-1A1.1,1.1,0,0,0,8,38.5a1.31,1.31,0,0,0-.42-.18,2.7,2.7,0,0,0-.68-.07H6V43Z" transform="translate(0.01 0)"/><path class="cls-2" d="M9.78,43V37.78h.52V43Z" transform="translate(0.01 0)"/></g><g class="cls-5"><path class="cls-2" d="M11.33,43V37.78H12l2.89,4.3h0v-4.3h.52V43h-.52L11.86,38.4h0V43Z" transform="translate(0.01 0)"/></g><g class="cls-5"><path class="cls-2" d="M17.14,43V38.25H16v-.47h2.89v.47H17.66V43Z" transform="translate(0.01 0)"/><path class="cls-2" d="M22.06,43V38.25H20.87v-.47h2.89v.47H22.58V43Z" transform="translate(0.01 0)"/><path class="cls-2" d="M24.34,43V37.78h.52v2.28h2.68V37.78h.52V43h-.52V40.53H24.86V43Z" transform="translate(0.01 0)"/><path class="cls-2" d="M29.12,43V37.78h.52V43Z" transform="translate(0.01 0)"/><path class="cls-2" d="M30.33,41.51h.52a1.37,1.37,0,0,0,.15.57.86.86,0,0,0,.38.37,1.13,1.13,0,0,0,.53.13,1.16,1.16,0,0,0,.54-.13.91.91,0,0,0,.39-.37,1,1,0,0,0,.14-.52,1,1,0,0,0-.08-.41.84.84,0,0,0-.23-.31,1.57,1.57,0,0,0-.39-.24l-.53-.18a4.71,4.71,0,0,1-.52-.18,1.46,1.46,0,0,1-.42-.29,1.09,1.09,0,0,1-.25-.38,1.42,1.42,0,0,1-.08-.49,1.39,1.39,0,0,1,.18-.7,1.29,1.29,0,0,1,.53-.51,1.55,1.55,0,0,1,.74-.18,1.4,1.4,0,0,1,1.44,1.41h-.52a1,1,0,0,0-.28-.67.89.89,0,0,0-.65-.27.9.9,0,0,0-.66.26.87.87,0,0,0-.26.64.67.67,0,0,0,.23.56A2.44,2.44,0,0,0,32,40a3.6,3.6,0,0,1,.79.31,1.47,1.47,0,0,1,.49.52,1.42,1.42,0,0,1,.18.71,1.53,1.53,0,0,1-.2.76,1.44,1.44,0,0,1-.57.56,1.61,1.61,0,0,1-.79.2,1.77,1.77,0,0,1-.56-.09,1.54,1.54,0,0,1-.48-.25,1.37,1.37,0,0,1-.32-.36,1.54,1.54,0,0,1-.17-.41A2.11,2.11,0,0,1,30.33,41.51Z" transform="translate(0.01 0)"/></g><g class="cls-5"><path class="cls-2" d="M9.45,51V45.78h1.44a3.44,3.44,0,0,1,.87.09,1.53,1.53,0,0,1,.57.29,1.6,1.6,0,0,1,.38.49,1.45,1.45,0,0,1,.15.69,1.51,1.51,0,0,1-.22.8,1.33,1.33,0,0,1-.56.53,2.76,2.76,0,0,1-1.2.22H10V51ZM10,46.25V48.4h1.4a1.17,1.17,0,0,0,.47-.15,1.12,1.12,0,0,0,.38-.39,1.08,1.08,0,0,0,0-1.05,1.06,1.06,0,0,0-.34-.36,1.3,1.3,0,0,0-.52-.17,5.55,5.55,0,0,0-.64,0Z" transform="translate(0.01 0)"/></g><g class="cls-5"><path class="cls-2" d="M12,51l2.21-5.18h.58L17.06,51H16.5l-.75-1.74H13.34L12.59,51Zm2.51-4.59-1,2.38h2Z" transform="translate(0.01 0)"/></g><g class="cls-5"><path class="cls-2" d="M18.81,48.58h3.51a3.75,3.75,0,0,1-.16.72,2.41,2.41,0,0,1-.36.67,2.94,2.94,0,0,1-1.37,1,2.75,2.75,0,0,1-.84.13,2.79,2.79,0,0,1-1.19-.26,2.77,2.77,0,0,1-1.34-1.29,2.53,2.53,0,0,1-.27-1.13,2.51,2.51,0,0,1,.22-1,2.69,2.69,0,0,1,.57-.84,2.84,2.84,0,0,1,3.48-.37,2.37,2.37,0,0,1,.95,1h-.6a2.41,2.41,0,0,0-.4-.47,2.28,2.28,0,0,0-1.46-.53,2.26,2.26,0,0,0-1.12.3,2.12,2.12,0,0,0-.83.83,2.21,2.21,0,0,0-.3,1.09,2.17,2.17,0,0,0,.3,1.09,2.11,2.11,0,0,0,.83.82,2.31,2.31,0,0,0,1.13.3A2.22,2.22,0,0,0,21,50.05a2.28,2.28,0,0,0,.47-.54,2,2,0,0,0,.2-.46H18.81Z" transform="translate(0.01 0)"/><path class="cls-2" d="M23.12,51V45.78H26v.47H23.64v1.86h2.24v.47H23.64v1.91H26V51Z" transform="translate(0.01 0)"/></g></g></svg>