<svg id="Layer_1" data-name="Layer 1" xmlns="http://www.w3.org/2000/svg" viewBox="0 0 50.27 48.14"><defs><style>.cls-1{fill:#fff;}.cls-2{fill:#55acee;}.cls-3{fill:none;stroke:#333;stroke-miterlimit:10;stroke-width:1.6px;}</style></defs><title>twitter-feed-icon</title><path class="cls-1" d="M821.43,3014.94c-6.18-3-13.41-4.75-19.87-2.48-3.38,1.18-6.29,3.38-9.15,5.54s-6,4.62-7.71,7.94c-1.79,3.56-1.74,7.73-1.65,11.72,0.08,3.3.18,6.71,1.61,9.68,1.73,3.57,5.15,6,8.67,7.86a34.88,34.88,0,0,0,17.53,4.34c6.09-.27,12.19-2.76,16.17-7.38a24.08,24.08,0,0,0,3.66-5.94c3.72-8.35,3.6-18.62-1.45-26.25-3.08-4.66-8.79-8.32-14.12-6.63" transform="translate(-783.01 -3011.43)"/><path class="cls-2" d="M794.74,3020.11a1,1,0,0,0-.51,1.31,0.84,0.84,0,0,0,1.35.06,0.76,0.76,0,0,0-.63-1.12" transform="translate(-783.01 -3011.43)"/><path class="cls-2" d="M819.34,3050.41a0.88,0.88,0,0,0,1.57.48,0.91,0.91,0,0,0-1.21-1.16" transform="translate(-783.01 -3011.43)"/><path class="cls-2" d="M823.94,3047.91a2.16,2.16,0,0,0,.66.87,0.74,0.74,0,0,0,1-.1c0.21-.3-0.11-0.83-0.45-0.69" transform="translate(-783.01 -3011.43)"/><path class="cls-2" d="M789.7,3026.24a1.11,1.11,0,0,1-1.21-.29,0.7,0.7,0,0,1,.31-1.07c0.43-.09.79,0.61,0.41,0.84" transform="translate(-783.01 -3011.43)"/><path class="cls-2" d="M825.8,3027.21a13.37,13.37,0,0,1-3.84,1.05,6.71,6.71,0,0,0,2.94-3.7,13.39,13.39,0,0,1-4.25,1.62,6.7,6.7,0,0,0-11.4,6.1,19,19,0,0,1-13.79-7,6.7,6.7,0,0,0,2.07,8.93,6.66,6.66,0,0,1-3-.84s0,0.06,0,.08a6.69,6.69,0,0,0,5.37,6.56,6.71,6.71,0,0,1-3,.11,6.7,6.7,0,0,0,6.25,4.65,13.42,13.42,0,0,1-8.31,2.86,13.62,13.62,0,0,1-1.6-.09,18.93,18.93,0,0,0,10.25,3c12.3,0,19-10.19,19-19q0-.44,0-0.87A13.6,13.6,0,0,0,825.8,3027.21Z" transform="translate(-783.01 -3011.43)"/><path class="cls-3" d="M824.31,3028.17a13.37,13.37,0,0,1-3.84,1.05,6.71,6.71,0,0,0,2.94-3.7,13.39,13.39,0,0,1-4.25,1.62,6.7,6.7,0,0,0-11.4,6.1,19,19,0,0,1-13.79-7,6.7,6.7,0,0,0,2.07,8.93,6.66,6.66,0,0,1-3-.84s0,0.06,0,.08a6.69,6.69,0,0,0,5.37,6.56,6.71,6.71,0,0,1-3,.11,6.7,6.7,0,0,0,6.25,4.65,13.42,13.42,0,0,1-8.31,2.86,13.62,13.62,0,0,1-1.6-.09,18.93,18.93,0,0,0,10.25,3c12.3,0,19-10.19,19-19q0-.44,0-0.87A13.6,13.6,0,0,0,824.31,3028.17Z" transform="translate(-783.01 -3011.43)"/></svg>