<svg viewBox="0 0 30 30" fill="none" xmlns="http://www.w3.org/2000/svg">
<circle cx="15" cy="15" r="15" fill="#FFCE00"/>
<path d="M19.999 15.2274C19.9895 14.9305 19.8744 14.6475 19.6754 14.4321L14.0275 8.37259C13.7358 8.05998 13.3044 7.93151 12.8958 8.0353C12.4872 8.13927 12.1634 8.45966 12.0465 8.87609C11.9295 9.29251 12.037 9.74156 12.3287 10.0542L17.1899 15.2727L12.3287 20.4912C12.037 20.8038 11.9295 21.2529 12.0465 21.6693C12.1634 22.0857 12.4872 22.4061 12.8958 22.5101C13.3044 22.6139 13.7358 22.4854 14.0275 22.1728L19.6754 16.1133C19.8956 15.8753 20.0123 15.5554 19.999 15.227V15.2274Z" fill="#4A0947"/>
</svg>
