<svg width="17" height="17" viewBox="0 0 17 17" fill="none" xmlns="http://www.w3.org/2000/svg">
<path d="M12.2132 16.9958C9.73501 16.9958 6.67345 15.5602 4.05457 12.9413C0.0579992 8.94058 -1.18317 3.91797 1.22884 1.50182L2.11834 0.612312C2.51138 0.219274 3.03681 0 3.59948 0C4.16214 0 4.68757 0.215137 5.08061 0.612312L6.77688 2.30858C7.16992 2.70162 7.38919 3.22705 7.38919 3.78971C7.38919 4.35238 7.17405 4.87781 6.77688 5.27084L5.35367 6.69406C5.95357 7.66631 6.69 8.59305 7.5464 9.4536C8.40281 10.31 9.32956 11.0464 10.3059 11.6463L11.7292 10.2231C12.1222 9.83008 12.6476 9.61081 13.2103 9.61081C13.773 9.61081 14.2984 9.82595 14.6914 10.2231L16.3877 11.9194C16.7807 12.3124 17 12.8379 17 13.4005C17 13.9632 16.7849 14.4886 16.3877 14.8817L15.4982 15.7712C14.6666 16.6027 13.5206 16.9999 12.2174 16.9999L12.2132 16.9958ZM3.60361 0.988801C3.32228 0.988801 3.03681 1.09637 2.82168 1.31151L1.93217 2.20101C-0.0578438 4.19103 1.21229 8.69234 4.75791 12.238C8.30352 15.7836 12.809 17.0496 14.7949 15.0637L15.6844 14.1742C16.1146 13.7439 16.1146 13.0447 15.6844 12.6144L13.9881 10.9182C13.5744 10.5045 12.8421 10.5045 12.4283 10.9182L10.7321 12.6144C10.5749 12.7717 10.3266 12.8048 10.1322 12.6931C8.96548 12.0187 7.8567 11.1623 6.84307 10.1487C5.82945 9.13503 4.97304 8.02625 4.29867 6.85955C4.18697 6.6651 4.22006 6.421 4.37728 6.25965L6.07355 4.56338C6.28041 4.35651 6.39625 4.07932 6.39625 3.78144C6.39625 3.48356 6.28041 3.2105 6.07355 2.9995L4.37728 1.30323C4.16214 1.08809 3.88081 0.980526 3.59534 0.980526L3.60361 0.988801Z" fill="#4A0947"/>
</svg>
