<svg width="17" height="13" viewBox="0 0 17 13" fill="none" xmlns="http://www.w3.org/2000/svg">
<path d="M15.2366 12.8218H1.76716C1.32446 12.8218 0.903883 12.6433 0.57923 12.3243C0.24351 11.9862 0.0553589 11.5381 0.0553589 11.0633V1.81919C0.0553589 0.846915 0.82272 0.0569458 1.76716 0.0569458H15.2366C16.181 0.0569458 16.9484 0.846915 16.9484 1.81919V11.0633C16.9484 11.5419 16.7639 11.99 16.4282 12.3243C16.1072 12.6471 15.683 12.8218 15.2403 12.8218H15.2366ZM1.59377 11.9255C1.64911 11.9369 1.70814 11.9445 1.76716 11.9445H15.2366C15.2956 11.9445 15.3509 11.9369 15.41 11.9255L9.98678 6.76409C9.89455 6.67674 9.85028 6.559 9.85028 6.44127C9.85028 6.33493 9.88717 6.22858 9.96465 6.14123C10.1233 5.96273 10.3963 5.95133 10.5697 6.11844L16.0519 11.3368C16.0814 11.2494 16.0962 11.1583 16.0962 11.0633V1.81919C16.0962 1.33305 15.7125 0.938066 15.2403 0.938066H1.76716C1.29494 0.938066 0.911262 1.33305 0.911262 1.81919V11.0633C0.911262 11.1583 0.926019 11.2494 0.955532 11.3368L6.43774 6.11844C6.61113 5.95513 6.88045 5.96273 7.04277 6.14123C7.12025 6.22479 7.15714 6.33493 7.15714 6.44127C7.15714 6.559 7.11287 6.67674 7.02064 6.76409L1.59377 11.9255Z" fill="#4A0947" stroke="#4A0947" stroke-width="0.3" stroke-miterlimit="10"/>
<path d="M8.50005 8.08957C8.09792 8.08957 7.6921 7.94525 7.37114 7.65281L0.586636 1.19253C0.501784 1.10897 0.450134 0.995035 0.450134 0.873501C0.450134 0.751967 0.494405 0.638029 0.579258 0.550677C0.900221 0.235449 1.32079 0.0569458 1.76719 0.0569458H15.2366C15.6793 0.0569458 16.0999 0.235449 16.4245 0.554475C16.5094 0.638029 16.5573 0.755765 16.5536 0.877299C16.55 0.998833 16.502 1.11277 16.4171 1.19633L9.64002 7.64521C9.64002 7.64521 9.63633 7.64901 9.63264 7.65281C9.31168 7.94525 8.90586 8.08957 8.50374 8.08957H8.50005ZM1.5938 0.957055L7.94297 7.00336C8.25656 7.28821 8.73985 7.28821 9.06081 6.99956L15.41 0.957055C15.3546 0.945662 15.2956 0.938066 15.2366 0.938066H1.76719C1.70816 0.938066 1.65283 0.945662 1.5938 0.957055Z" fill="#4A0947" stroke="#4A0947" stroke-width="0.3" stroke-miterlimit="10"/>
</svg>
