<svg width="15" height="17" viewBox="0 0 15 17" fill="none" xmlns="http://www.w3.org/2000/svg">
<path fill-rule="evenodd" clip-rule="evenodd" d="M2.72025 0C2.51416 0.000955729 2.31671 0.102672 2.1709 0.282895C2.0251 0.463118 1.94295 0.707108 1.94206 0.962013V2.99741C1.94206 3.34106 2.09039 3.65863 2.33116 3.83039C2.57192 4.00228 2.86858 4.00228 3.10932 3.83039C3.35009 3.65863 3.49842 3.34106 3.49842 2.99741V0.962013C3.49753 0.707108 3.41526 0.463143 3.26958 0.282895C3.1238 0.102675 2.92632 0.000957686 2.72023 0H2.72025ZM12.2797 0C12.0736 0.000955729 11.8762 0.102672 11.7304 0.282895C11.5847 0.463115 11.5024 0.707108 11.5015 0.962013V2.99741C11.5015 3.34106 11.6498 3.65863 11.8906 3.83039C12.1314 4.00228 12.428 4.00228 12.6688 3.83039C12.9095 3.65863 13.0579 3.34106 13.0579 2.99741V0.962013C13.057 0.707108 12.9748 0.463143 12.829 0.282895C12.6832 0.102647 12.4858 0.000957686 12.2797 0H12.2797ZM14.9998 7.05367H0.000282792V16.3869C0.000614126 16.5412 0.101778 16.6663 0.226579 16.6667H14.7737C14.8984 16.6663 14.9994 16.5415 15 16.3873L14.9998 7.05367ZM0 6.41499L0.000110442 2.57901C0.000441776 2.42472 0.101606 2.29966 0.226406 2.29925H1.42494V2.99735C1.42494 3.56941 1.67177 4.09806 2.07256 4.38411C2.47325 4.67014 2.96704 4.67014 3.36781 4.38411C3.76861 4.09807 4.01544 3.56941 4.01544 2.99735V2.29925H10.9842V2.99735C10.9842 3.56941 11.2311 4.09806 11.6318 4.38411C12.0326 4.67014 12.5264 4.67014 12.9271 4.38411C13.3279 4.09807 13.5747 3.56941 13.5747 2.99735V2.29925H14.7733C14.8981 2.29966 14.9992 2.42472 14.9995 2.57901V6.41429L0 6.41499Z" fill="#4A0947"/>
</svg>
