<svg width="146" height="45" viewBox="0 0 146 45" fill="none" xmlns="http://www.w3.org/2000/svg">
<g clip-path="url(#clip0_259_339)">
<path fill-rule="evenodd" clip-rule="evenodd" d="M22.2931 0C9.98096 0 0 10.0606 0 22.4712C0 34.8824 9.98096 44.9437 22.2931 44.9437C34.6055 44.9437 44.5863 34.8824 44.5863 22.4712C44.5863 10.0606 34.6055 0 22.2931 0ZM22.2931 3.69393C32.5654 3.69393 40.922 12.1175 40.922 22.4712C40.922 32.8254 32.5654 41.2495 22.2931 41.2495C12.0209 41.2495 3.66425 32.8254 3.66425 22.4712C3.66425 12.1175 12.0209 3.69418 22.2931 3.69418" fill="white"/>
<path fill-rule="evenodd" clip-rule="evenodd" d="M9.13171 14.9304H21.7954V18.8053H13.5187V21.5176H21.0034V25.1875H13.5187V30.886H9.13171V14.9304ZM29.9821 22.589C31.4519 22.589 32.334 21.8594 32.334 20.6968V20.6518C32.334 19.3753 31.4068 18.7367 29.9599 18.7367H27.0649V22.589H29.9821ZM22.6782 14.9302H30.1625C32.5829 14.9302 34.2557 15.5683 35.3189 16.6399C36.2454 17.5739 36.7207 18.7822 36.7207 20.3555V20.4007C36.7207 22.8625 35.432 24.4812 33.4645 25.3237L37.2406 30.886H32.198L29.0098 26.0533H27.0649V30.8857H22.6782V14.9302Z" fill="white"/>
<path fill-rule="evenodd" clip-rule="evenodd" d="M53.2883 10.8345H60.1559V11.5095H54.0127V15.5386H59.529V16.2136H54.013V20.6636H53.2883V10.8345ZM61.5782 16.5775V10.8347H62.3026V16.5072C62.3026 18.8245 63.5423 20.1588 65.6041 20.1588C67.5824 20.1588 68.8501 18.9504 68.8501 16.5775V10.8347H69.5741V16.4939C69.5741 19.3163 67.9446 20.8186 65.5761 20.8186C63.2361 20.8186 61.5782 19.3308 61.5782 16.5775ZM71.6252 10.8345H72.3077L79.0363 19.3864V10.8345H79.7327V20.6636H79.1894L72.3216 11.9309V20.6636H71.6252V10.8345ZM85.181 19.9899C87.8968 19.9899 89.6098 18.1225 89.6098 15.7776V15.7488C89.6098 13.4184 87.8968 11.5095 85.181 11.5095H82.6587V19.9899H85.181ZM81.935 10.8347H85.181C88.2453 10.8347 90.3625 12.9554 90.3625 15.7218V15.7488C90.3625 18.5152 88.2453 20.6636 85.181 20.6636H81.935V10.8347ZM96.1459 15.9322C97.7764 15.9322 98.988 15.1036 98.988 13.6854V13.6577C98.988 12.3379 97.9575 11.5092 96.1881 11.5092H92.8587V15.9322H96.1459ZM92.1351 10.8349H96.23C97.4285 10.8349 98.3894 11.2144 98.9739 11.8036C99.4331 12.2676 99.7124 12.9271 99.7124 13.6289V13.6577C99.7124 15.3005 98.5003 16.2411 96.8572 16.4656L100.075 20.6634H99.155L96.0487 16.5918H92.8585V20.6631H92.1346V10.8349H92.1351ZM108.115 17.2525L105.551 11.5653L102.974 17.2522H108.115V17.2525ZM105.216 10.7644H105.914L110.454 20.6636H109.66L108.421 17.9118H102.667L101.427 20.6636H100.675L105.216 10.7644H105.216ZM111.919 20.6636H112.644V10.8345H111.919V20.6636ZM114.316 19.2318L114.79 18.6841C115.862 19.6803 116.852 20.1445 118.286 20.1445C119.749 20.1445 120.751 19.3163 120.751 18.1923V18.164C120.751 17.1254 120.208 16.5214 117.993 16.0727C115.654 15.5958 114.706 14.7942 114.706 13.3067V13.278C114.706 11.8178 116.029 10.6943 117.841 10.6943C119.261 10.6943 120.194 11.0882 121.183 11.8879L120.724 12.4638C119.804 11.6629 118.885 11.3548 117.812 11.3548C116.378 11.3548 115.431 12.1827 115.431 13.2079V13.2367C115.431 14.2754 115.96 14.9078 118.272 15.3851C120.528 15.8474 121.477 16.6618 121.477 18.094V18.1227C121.477 19.709 120.125 20.8043 118.245 20.8043C116.684 20.8043 115.486 20.2849 114.316 19.2318ZM123.261 20.6636H123.986V10.8345H123.261L123.261 20.6636ZM126.285 10.8345H126.967L133.696 19.3864V10.8345H134.392V20.6636H133.849L126.981 11.9309V20.6636H126.285V10.8345ZM136.163 15.7776V15.7488C136.163 13.096 138.072 10.6665 140.984 10.6665C142.571 10.6665 143.574 11.1438 144.549 11.958L144.076 12.5056C143.31 11.8318 142.418 11.3263 140.942 11.3263C138.573 11.3263 136.916 13.3488 136.916 15.7218V15.7488C136.916 18.2914 138.49 20.1863 141.095 20.1863C142.334 20.1863 143.491 19.6675 144.201 19.0628V16.2406H140.942V15.5668H144.898V19.3577C144.02 20.1443 142.655 20.8331 141.067 20.8331C137.989 20.8331 136.163 18.544 136.163 15.7776" fill="white"/>
<path fill-rule="evenodd" clip-rule="evenodd" d="M57.9913 28.4816C59.1621 28.4816 59.8338 27.8516 59.8338 26.9223V26.8916C59.8338 25.8529 59.1157 25.3168 57.9448 25.3168H55.5561V28.4816H57.9913ZM53.151 23.1303H58.1478C59.5372 23.1303 60.6141 23.523 61.3329 24.2474C61.9417 24.8607 62.2691 25.7262 62.2691 26.7654V26.7974C62.2691 28.576 61.3168 29.6926 59.9274 30.212L62.5977 34.1467H59.787L57.4446 30.6209H55.5561V34.1467H53.151V23.1303ZM63.6536 23.1303H71.8971V25.2868H66.0416V27.5216H71.1951V29.6776H66.0416V31.9903H71.9754V34.1469H63.6536V23.1303ZM72.8443 28.6702V28.6387C72.8443 25.5066 75.2647 22.9419 78.5741 22.9419C80.5428 22.9419 81.7294 23.4762 82.8684 24.4522L81.3548 26.2933C80.5109 25.5851 79.7606 25.1754 78.4971 25.1754C76.7477 25.1754 75.3591 26.7337 75.3591 28.6065V28.6385C75.3591 30.6529 76.7323 32.1322 78.6679 32.1322C79.543 32.1322 80.3239 31.9116 80.9319 31.4717V29.8975H78.5124V27.8048H83.2594V32.5889C82.135 33.5489 80.5891 34.3355 78.5907 34.3355C75.1865 34.3355 72.8443 31.9279 72.8443 28.6702ZM84.6115 29.4251V23.1305H87.016V29.3624C87.016 31.1567 87.9067 32.085 89.3738 32.085C90.8411 32.085 91.7313 31.1885 91.7313 29.4401V23.1305H94.1366V29.3462C94.1366 32.6828 92.278 34.3198 89.3421 34.3198C86.4076 34.3198 84.6115 32.6678 84.6115 29.4251ZM95.8007 23.1303H98.2052V31.9434H103.655V34.1467H95.8007V23.1303ZM110.957 29.536L109.504 25.9635L108.053 29.536H110.957ZM108.427 23.0508H110.644L115.328 34.1469H112.814L111.815 31.6753H107.194L106.194 34.1467H103.742L108.427 23.0508ZM117.368 25.3643H114.043V23.13H123.099V25.3643H119.772V34.1464H117.368L117.368 25.3643ZM132.306 28.6702V28.6387C132.306 26.7504 130.932 25.1754 128.996 25.1754C127.059 25.1754 125.717 26.7182 125.717 28.6065V28.6385C125.717 30.527 127.091 32.1017 129.027 32.1017C130.963 32.1017 132.306 30.5585 132.306 28.6702ZM123.202 28.6702V28.6387C123.202 25.5066 125.654 22.9419 129.027 22.9419C132.4 22.9419 134.82 25.4749 134.82 28.6065V28.6385C134.82 31.77 132.369 34.3355 128.996 34.3355C125.624 34.3355 123.202 31.8017 123.202 28.6702ZM141.012 28.4816C142.183 28.4816 142.854 27.8516 142.854 26.9223V26.8916C142.854 25.8529 142.136 25.3168 140.965 25.3168H138.576V28.4816H141.012ZM136.172 23.1303H141.168C142.558 23.1303 143.635 23.523 144.354 24.2474C144.962 24.8607 145.291 25.7262 145.291 26.7654V26.7974C145.291 28.576 144.338 29.6926 142.948 30.212L145.618 34.1467H142.808L140.465 30.6209H138.576V34.1467H136.172V23.1303Z" fill="white"/>
</g>
<defs>
<clipPath id="clip0_259_339">
<rect width="145.761" height="45" fill="white"/>
</clipPath>
</defs>
</svg>
