<svg width="40" height="40" viewBox="0 0 40 40" fill="none" xmlns="http://www.w3.org/2000/svg">
<rect width="40" height="40" rx="5" fill="#FF7600"/>
<path d="M32.1852 12.8571H16.3827C15.8534 12.8571 15.3644 12.5848 15.0996 12.1429C14.8351 11.7009 14.8351 11.1562 15.0996 10.7143C15.3644 10.2723 15.8534 10 16.3827 10H32.1852C32.7145 10 33.2035 10.2723 33.4682 10.7143C33.7328 11.1562 33.7328 11.7009 33.4682 12.1429C33.2035 12.5848 32.7145 12.8571 32.1852 12.8571ZM33.6667 20C33.6667 19.6212 33.5106 19.2576 33.2328 18.9898C32.955 18.722 32.578 18.5714 32.1852 18.5714H8.48146C7.95214 18.5714 7.46316 18.8438 7.19841 19.2857C6.93386 19.7277 6.93386 20.2723 7.19841 20.7143C7.46318 21.1563 7.95214 21.4286 8.48146 21.4286H32.1852C32.5781 21.4286 32.9551 21.2781 33.2328 21.0102C33.5105 20.7424 33.6667 20.3788 33.6667 20V20ZM33.6667 28.5714C33.6667 28.1926 33.5106 27.829 33.2328 27.5612C32.955 27.2934 32.578 27.1429 32.1852 27.1429H16.3827C15.8534 27.1429 15.3644 27.4152 15.0997 27.8571C14.8351 28.2991 14.8351 28.8438 15.0997 29.2857C15.3644 29.7277 15.8534 30 16.3827 30H32.1852C32.5781 30 32.9551 29.8495 33.2328 29.5816C33.5105 29.3138 33.6667 28.9502 33.6667 28.5715V28.5714Z" fill="#4A0947"/>
</svg>
