<svg width="30" height="30" viewBox="0 0 30 30" fill="none" xmlns="http://www.w3.org/2000/svg">
<circle cx="15" cy="15" r="14.5" fill="#FFCE00" stroke="#4A0947"/>
<path d="M8.31938 8.31938C8.74522 7.89354 9.43542 7.89354 9.86104 8.31938L15 13.4583L20.139 8.31938C20.5648 7.89354 21.255 7.89354 21.6806 8.31938C22.1065 8.74522 22.1065 9.43542 21.6806 9.86104L16.5417 15L21.6806 20.139C22.1065 20.5648 22.1065 21.255 21.6806 21.6806C21.2548 22.1065 20.5646 22.1062 20.139 21.6806L15 16.5417L9.86104 21.6806C9.4352 22.1062 8.74499 22.1062 8.31938 21.6806C7.89354 21.2548 7.89354 20.5646 8.31938 20.139L13.4583 15L8.31938 9.86104C7.89354 9.4352 7.89354 8.74499 8.31938 8.31938Z" fill="#4A0947"/>
</svg>
