<svg width="14" height="8" viewBox="0 0 14 8" fill="none" xmlns="http://www.w3.org/2000/svg">
<path d="M7.04362 7.69902C7.32937 7.68985 7.60176 7.5791 7.8091 7.3876L13.6413 1.95148C13.9422 1.67072 14.0659 1.2555 13.966 0.862231C13.8659 0.468974 13.5575 0.157234 13.1567 0.0447499C12.7559 -0.067904 12.3237 0.0355861 12.0228 0.316346L7 4.9953L1.9772 0.316346C1.67631 0.0355845 1.24409 -0.067904 0.843287 0.0447499C0.442484 0.157242 0.134129 0.468962 0.0340227 0.862231C-0.0658918 1.25549 0.0577811 1.67069 0.35867 1.95148L6.19091 7.3876C6.42003 7.59948 6.72793 7.71181 7.04395 7.69902H7.04362Z" fill="white"/>
</svg>
