<?xml version="1.0" encoding="utf-8"?>
<!-- Generator: Adobe Illustrator 27.2.0, SVG Export Plug-In . SVG Version: 6.00 Build 0)  -->
<svg version="1.1" id="Layer_1" xmlns="http://www.w3.org/2000/svg" xmlns:xlink="http://www.w3.org/1999/xlink" x="0px" y="0px"
	 viewBox="0 0 24.3 24.3" style="enable-background:new 0 0 24.3 24.3;" xml:space="preserve">
<style type="text/css">
	.st0{fill:none;stroke:#4A0947;stroke-miterlimit:10;}
</style>
<path class="st0" d="M13.9,5c2.7-0.3,5.1,1.6,5.4,4.3c0,0.4,0,0.7,0,1.1"/>
<path class="st0" d="M6,11.1c0.8,3.6,3.6,6.4,7.2,7.2"/>
<path class="st0" d="M11.5,1.1c5.2-1.2,10.4,2,11.7,7.3c0.3,1.4,0.3,2.9,0,4.4"/>
<path class="st0" d="M6,11.1l0.8-0.2c0.8-0.2,1.3-0.8,1.3-1.6l0.1-2.4c0-1-0.7-1.8-1.7-1.8c0,0,0,0-0.1,0L1.4,5"/>
<path class="st0" d="M19.2,22.9C11.5,25,3.5,20.5,1.4,12.7c-0.7-2.5-0.7-5.2,0-7.7"/>
<path class="st0" d="M13.2,18.3l0.2-0.8c0.2-0.8,0.9-1.3,1.7-1.4l2.4-0.1c1,0,1.8,0.7,1.8,1.7c0,0,0,0,0,0.1l0.1,5.1"/>
</svg>
