<svg id="Layer_1" data-name="Layer 1" xmlns="http://www.w3.org/2000/svg" viewBox="0 0 70.24 70.24"><defs><style>.cls-1{fill:#fff;}.cls-2{fill:#FFCE00;fill-rule:evenodd;}</style></defs><title>pin-white</title><circle class="cls-1" cx="35.12" cy="35.12" r="35.12"/><path class="cls-2" d="M51.28,24.66a16.16,16.16,0,1,0-31.45,5.23h0a16.05,16.05,0,0,0,.75,1.83h0L26.36,43.5l8.76,18.24L47.8,35.34h0l1.56-3,.26-.51v0h0a16,16,0,0,0,.78-1.89h0A16.14,16.14,0,0,0,51.28,24.66Z"/><path class="cls-1" d="M35.1,35.28a10.55,10.55,0,1,1,4.12-.83A10.51,10.51,0,0,1,35.1,35.28Z"/></svg>