<?xml version="1.0" encoding="utf-8"?>
<!-- Generator: Adobe Illustrator 27.2.0, SVG Export Plug-In . SVG Version: 6.00 Build 0)  -->
<svg version="1.1" id="Layer_1" xmlns="http://www.w3.org/2000/svg" xmlns:xlink="http://www.w3.org/1999/xlink" x="0px" y="0px"
	 viewBox="0 0 33.3 20.7" style="enable-background:new 0 0 33.3 20.7;" xml:space="preserve">
<style type="text/css">
	.st0{fill:#4A0947;}
</style>
<path class="st0" d="M29.5,20.7L29.5,20.7L3.7,20.3c-2.1,0-3.7-1.7-3.7-3.8V3.4L16.2,12c0.3,0.2,0.6,0.2,0.9,0l16.2-9.2v14
	C33.3,19,31.6,20.7,29.5,20.7L29.5,20.7z M1.4,5.7v10.9c0,1.3,1.1,2.4,2.4,2.4l25.8,0.4c1.3,0,2.4-1,2.4-2.4c0,0,0,0,0,0V5.2
	l-14.1,8c-0.7,0.4-1.5,0.4-2.2,0L1.4,5.7z"/>
<path class="st0" d="M16.8,10.4L0.9,2C0.4,1.8,0.2,1.1,0.4,0.6C0.6,0.2,1,0,1.4,0h30.5c0.5,0,0.9,0.3,1,0.8c0.2,0.5-0.1,1-0.5,1.2
	L16.8,10.4z M2.7,1.4l14.1,7.4l13.8-7.4L2.7,1.4z"/>
</svg>
