<svg width="13" height="18" viewBox="0 0 13 18" fill="none" xmlns="http://www.w3.org/2000/svg">
<path d="M7.81277 15.5642C7.29177 16.3778 6.81518 17.1222 6.45216 17.7627C6.41112 17.8334 6.35186 17.895 6.27609 17.9384C6.05124 18.0671 5.76502 17.9877 5.63749 17.7608C5.28323 17.1353 4.80207 16.384 4.27621 15.5626C1.88314 11.8254 -1.42143 6.66493 0.657457 2.99533C1.25857 1.93357 2.02867 1.18429 2.94326 0.698932C3.85261 0.216623 4.89319 0 6.04467 0C7.19618 0 8.237 0.216633 9.14608 0.698932C10.0612 1.18442 10.8312 1.93384 11.4322 2.99533C13.5111 6.66493 10.2059 11.8267 7.81273 15.564L7.81277 15.5642ZM7.37762 4.8894C7.03689 4.54589 6.56557 4.33319 6.04494 4.33319C5.52431 4.33319 5.05312 4.54586 4.71226 4.8894C4.37153 5.23291 4.16055 5.70808 4.16055 6.23296C4.16055 6.75783 4.3715 7.23287 4.71226 7.57651C5.05299 7.92003 5.52431 8.13272 6.04494 8.13272C6.56557 8.13272 7.03676 7.92005 7.37762 7.57651C7.71835 7.233 7.92933 6.75783 7.92933 6.23296C7.92933 5.70808 7.71838 5.23305 7.37762 4.8894Z" fill="white"/>
</svg>
