<?xml version="1.0" encoding="utf-8"?>
<!-- Generator: Adobe Illustrator 26.5.0, SVG Export Plug-In . SVG Version: 6.00 Build 0)  -->
<svg version="1.1" id="Layer_1" xmlns="http://www.w3.org/2000/svg" xmlns:xlink="http://www.w3.org/1999/xlink" x="0px" y="0px"
	 viewBox="0 0 28 43" style="enable-background:new 0 0 28 43;" xml:space="preserve">
<style type="text/css">
	.st0{fill:#FFCE00;}
	.st1{fill:#333333;stroke:#333333;stroke-width:0.56;stroke-miterlimit:10;}
</style>
<path class="st0" d="M15.2,0C22.3,0,28,5.7,28,12.7c0,0,0,0,0,0c0,5.7-4,11.6-9.1,13.3l-1.3,1.2l-2.7,11.6l-2.6-10.4l-0.5-2
	c-0.2-0.9-0.8-1.6-1.6-2C3.7,21.5,0.8,14,3.7,7.6C5.7,3,10.2,0.1,15.2,0L15.2,0z"/>
<path class="st1" d="M13.6,0.9c7.4,0,13.3,6,13.3,13.3c0,5.3-3.2,10.1-8,12.2c-0.6,0.2-1,0.7-1.1,1.3L17.2,30l-3,12l-0.1,0.3
	c-0.1,0.3-0.4,0.4-0.6,0.4c-0.2,0-0.3-0.2-0.4-0.4L13,42l-3-12l-0.5-2c-0.2-0.7-0.7-1.3-1.4-1.6c-6.7-3-9.8-10.8-6.8-17.6
	C3.5,4,8.3,0.9,13.6,0.9L13.6,0.9L13.6,0.9z M22.2,5.7C17.4,1,9.8,1,5,5.7C0.8,9.9,0.3,16.6,3.8,21.4c1.5,2.1,5.7,4,6.2,4.6
	s1.1,3.7,1.1,3.7l2.1,8.3c0,0.2,0.2,0.3,0.4,0.3c0.1,0,0.2-0.1,0.3-0.3l2.1-8.3c0,0,0.5-3.1,1.2-3.7s4.7-2.6,6.2-4.7
	C26.9,16.6,26.4,9.9,22.2,5.7L22.2,5.7L22.2,5.7z"/>
</svg>
