<?xml version="1.0" encoding="utf-8"?>
<!-- Generator: Adobe Illustrator 23.0.2, SVG Export Plug-In . SVG Version: 6.00 Build 0)  -->
<svg version="1.1" id="Layer_1" xmlns="http://www.w3.org/2000/svg" xmlns:xlink="http://www.w3.org/1999/xlink" x="0px" y="0px"
	 viewBox="0 0 145 179.9" style="enable-background:new 0 0 145 179.9;" xml:space="preserve">
<style type="text/css">
	.st0{opacity:5.000000e-02;}
	.st1{clip-path:url(#SVGID_2_);}
</style>
<g class="st0">
	<g>
		<defs>
			<rect id="SVGID_1_" x="-10" y="-11" width="160.4" height="190.4"/>
		</defs>
		<clipPath id="SVGID_2_">
			<use xlink:href="#SVGID_1_"  style="overflow:visible;"/>
		</clipPath>
		<path class="st1" d="M143.5,16.5c-0.8-1.4-2.6-1.9-4-1.1L122.9,25c-0.9,0.5-2.1,0.5-3,0L87,6c-2.8-1.6-6.2-1.6-8.9,0
			C78,6,45,25,45,25c-0.9,0.5-2.1,0.5-3,0l-16.6-9.6c-1.4-0.8-3.2-0.3-4,1.1s-0.3,3.2,1.1,4l16.6,9.6c0.9,0.5,1.5,1.6,1.5,2.6v37.9
			c0,1.1-0.6,2.1-1.5,2.7L6,92.4C3.2,94,1.5,97,1.5,100.2V138c0,3.2,1.7,6.2,4.5,7.8l33.1,19.1c1.1,0.6,1.5,1.7,1.5,2.6v19
			c0,1.7,1.4,3,3,3c1.7,0,3-1.4,3-3v-19c0-1.1,0.6-2,1.5-2.6l33.1-19.1c2.8-1.6,4.5-4.6,4.5-7.8v-38c0-1.1,0.6-2.1,1.5-2.6
			l32.6-18.9c2.7-1.6,4.4-4.5,4.4-7.7v-38c0-1.1,0.6-2.1,1.5-2.6l16.6-9.6C143.8,19.7,144.3,17.9,143.5,16.5z M79.2,138
			c0,1.1-0.6,2.1-1.5,2.6l-32.8,18.9c-0.9,0.5-2.1,0.5-3,0L9,140.6c-0.9-0.5-1.5-1.5-1.5-2.6v-37.9C7.5,99,8.1,98,9,97.5l32.8-18.9
			c0.9-0.6,2.1-0.6,3,0l32.8,18.9c0.9,0.5,1.5,1.5,1.5,2.6L79.2,138L79.2,138z M118.3,70.7c0,1.1-0.6,2.1-1.5,2.6L84,92.2
			c-0.9,0.5-2.1,0.5-3,0L48.1,73.3c-0.9-0.5-1.5-1.6-1.5-2.6V32.8c0-1.1,0.6-2.1,1.5-2.6l32.8-18.9c1.1-0.6,2.3-0.5,3,0l32.8,18.9
			c0.9,0.5,1.5,1.5,1.5,2.6v37.9H118.3z"/>
	</g>
</g>
</svg>
